<svg width="40" height="40" fill="none" xmlns="http://www.w3.org/2000/svg"><path d="M21.245 39.959c21.861-1.255 25.926-32.043 5.182-38.957-5.74-1.921-12.321-1.047-17.343 2.34h.002A19.996 19.996 0 00.38 17.036l-.001-.001c-1.968 12.338 8.385 23.74 20.865 22.924zm16.18-12.672a18.638 18.638 0 01-2.846 4.674c-.083-.494.145-1.066-.195-1.527-.37-.72-.712-1.456-1.097-2.168-.143-.265-.104-.417.107-.607 2.26-1.983.245-.93.467-3.763a.385.385 0 00-.204-.381c-1.071-.684-2.47-.92-3.577-.159-1.38.652-3.348.153-3.794-1.43-.395-1.053-.347-2.116-.357-3.191.064-.58.859-.678.73-1.348.03-.85-.247-1.749.558-2.304a.53.53 0 01.458-.122 3.147 3.147 0 002.098-.489c.658-.417 1.47-.147 2.198-.242.348-.025.605.077.818.348.42.53 1.078.686 1.63 1.008.186.109.286-.028.373-.14.464-.599 1.175-.8 1.799-1.144.34-.195 1.02.548 1.6.575 1.155 4.043.887 8.544-.766 12.41zm-.271-15.196c-.693.091-.227-.566-.584-.91-.36-.32-.7-.66-1.023-1.017-.166-.178-.274-.207-.467-.016-.518.512-.49.458.115 1.07.705.776 1.237.763-.04 1.302-.29.13-.564.429-.881-.002-.192-.26-.453-.436-.422-.837.048-.619-.425-1.067-.643-1.602-.065-.16-.18-.047-.242.031-.46.591-1.154.82-1.783 1.148-1.086.95-.838.847-2.28.805-.133.006-.173-.155-.23-.249-.726-1.188-.586-1.478.166-2.6.277-.166 1.5.026 1.73.267.104.108.19.235.34.424.114-.46.056-.813.068-1.16.195-1.425 1.392-.783 2.242-1.092.401-.307.566-.46.481-.61a18.657 18.657 0 013.453 5.048zm-3.57-5.168c-.58-.378-1.868-.776-1.902-1.709a18.592 18.592 0 011.903 1.71zm-26.677-.18a18.75 18.75 0 013.603-2.819c.446.228.764 1.066 1.323.768.597-.313 1.233-.561 1.66-1.121.243-.295.668-.07.985-.159 1.246-.168 1.583 1.25 2.049 2.094-.041.035-.063.068-.08.066-1.082-.122-2.073.225-3.053.602-.322.124-.57.135-.771-.175-.25-.383-.569-.394-.966-.23-.367.26-1.689.306-1.597.827.09.49-.298 1.326.582 1.159.412-.144.767 1.074 1.019.374.54-2.19 2.819-.279 4.576-1.678.647-.384 1.178.88 1.43 1.325.19.417.328.909 1 .763-.421.421-.845.84-1.261 1.265-.121.124-.23.084-.366.037-.524-.182-1.054-.343-1.575-.53-.25-.09-.369-.098-.363.236.426 2.292-1.527.081-2.883 1.8-1.692 1.7-.383 3.128-2.708 4.915-.14.128-.255.144-.392.043-1.01-.718-3.28-1.107-4.035.065a.243.243 0 00.033.21c.404.649.436 1.739 1.204.652.228-.195.496-.13.73-.09.246.04.124.301.118.453.035.604.904.712.733 1.392-.097.492.523.22.795.303.44.063.775-.084 1.057-.428.214-.26 1.443-.438 1.726-.27.225.226.32.58.48.856.268.536.28.547.673.123.905-.71 2.178-.149 3.039.345.676.379.453 1.732 1.46 1.537.194-.045.299.12.405.24.732.895 1.914.788 2.347 2.016.28.512.25.961.012 1.468-.168.952-.636 1.653-1.625 1.92-.783.281.539 1.56-1.255 2.07-.46.1-.52.452-.46.866.19 1.064-.068 1.867-1.239 2.148-.346.114-.284.574-.449.837-.807 1.471-.073 2.545.955 3.576-.902.053-1.88.145-2.193-.827-.39-1.132-.742-2.274-1.32-3.333-.194-.355-.07-.768-.075-1.153-.14-1.578-1.751-2.758-1.448-4.439.117-.842-1.084.36-2.327-1.171-.414-.492-1.378-1.68-1.212-2.296.34-.848.376-1.871 1.162-2.46.335-.26.365-1.071-.259-.914-1.603.268-1.26-.936-2.2-.707-.636.067-1.095-.141-1.589-.586-1.482-1.364-1.907-.353-2.757-1.364A18.687 18.687 0 016.907 6.743z" fill="#092A5E"/></svg>